<svg id="Capa_1" data-name="Capa 1" xmlns="http://www.w3.org/2000/svg" viewBox="0 0 210.1 97.5"><defs><style>.cls-1{fill:#0a3871;}</style></defs><rect class="cls-1" x="54.7" y="0.3" width="11.3" height="97.1" rx="0.9"/><path class="cls-1" d="M121,78.7v2.4a20.69,20.69,0,0,1-.6,4.3,10.58,10.58,0,0,1-2.8,5.3,19.7,19.7,0,0,1-6.8,4.7,35.14,35.14,0,0,1-12.6,1.9,35.14,35.14,0,0,1-12.6-1.9,16.12,16.12,0,0,1-6.8-4.7A11.27,11.27,0,0,1,76,85.3a32,32,0,0,1-.6-4.2V26.8a.9.9,0,0,1,.9-.9h9.5a.9.9,0,0,1,.9.9V77.6a12,12,0,0,0,.5,3.8,5.85,5.85,0,0,0,1.4,2.7,7.63,7.63,0,0,0,3.3,2.2,15.54,15.54,0,0,0,5.9.9,17.3,17.3,0,0,0,6.2-.9,7.93,7.93,0,0,0,3.4-2.1,6.27,6.27,0,0,0,1.6-2.7,13.51,13.51,0,0,0,.6-4.1V26.8a.9.9,0,0,1,.9-.9H120a.9.9,0,0,1,.9.9Z"/><path class="cls-1" d="M153.4,26h6.4a.83.83,0,0,1,.8,1.1l-2.2,8.3a1,1,0,0,1-.8.7h-4.5a13.73,13.73,0,0,0-5.8,1,10,10,0,0,0-3.4,2.2,8.05,8.05,0,0,0-1.5,2.7,13.12,13.12,0,0,0-.3,2.7V96.6a.9.9,0,0,1-.9.9h-9.6a.9.9,0,0,1-.9-.9V42.3a20.79,20.79,0,0,1,.6-4.2,10.85,10.85,0,0,1,2.8-5.4,19.7,19.7,0,0,1,6.8-4.7c3-1.4,7.2-2,12.5-2Z"/><path class="cls-1" d="M39.7,30.6C36.1,27.5,30.3,26,22.6,26a48.19,48.19,0,0,0-10.2,1.1,18.8,18.8,0,0,0-7.1,3.4,12.32,12.32,0,0,0-4.1,5.3A15.93,15.93,0,0,0,0,42v2.3a.9.9,0,0,0,.9.9h9.3a.82.82,0,0,0,.9-.8,9.67,9.67,0,0,1,2.3-5.7c1.7-1.8,4.6-2.7,9-2.7a16.71,16.71,0,0,1,5.5.7,9.67,9.67,0,0,1,3.5,1.9,7.19,7.19,0,0,1,1.8,2.6,7,7,0,0,1,.6,2.7v2.5a6.09,6.09,0,0,1-.6,2.8,6.66,6.66,0,0,1-1.3,2.1,9.62,9.62,0,0,1-1.7,1.3c-.5.3-1,.5-1.3.7s-1.3.4-2.7,1-3.1,1-5,1.7-3.9,1.4-5.9,2.1-3.8,1.2-5.4,1.8a14.44,14.44,0,0,0-7.3,5.8A17.53,17.53,0,0,0,0,74.9v6.2a17,17,0,0,0,1,5.2,11,11,0,0,0,3.3,5.2,19,19,0,0,0,6.9,4,35.44,35.44,0,0,0,11.4,1.6A32.86,32.86,0,0,0,34,95.5a20.58,20.58,0,0,0,6.9-4,12.13,12.13,0,0,0,3.3-5.2,17.24,17.24,0,0,0,.9-5.2v-39A14.54,14.54,0,0,0,39.7,30.6Zm-8,54.2c-1.7,1.7-4.7,2.6-9.1,2.6s-7.3-.9-8.9-2.5-2.4-4.2-2.4-7.5a7.92,7.92,0,0,1,1-4.2,12.27,12.27,0,0,1,2.2-2.7,19.23,19.23,0,0,1,3.1-1.8c1.3-.5,2.9-1,4.5-1.6,1.3-.4,2.8-.9,4.3-1.5s3-1,4.3-1.5a9.34,9.34,0,0,0,2-1,3.53,3.53,0,0,0,1.3-2l.1,16.4C34.1,80.6,33.3,83.1,31.7,84.8Z"/><path class="cls-1" d="M204.7,30.6c-3.6-3.1-9.4-4.6-17.1-4.6a45.06,45.06,0,0,0-10.4,1.2,18.8,18.8,0,0,0-7.1,3.4,13.34,13.34,0,0,0-4.1,5.2,15.93,15.93,0,0,0-1.2,6.2v2.3a.9.9,0,0,0,.9.9h9.6a.82.82,0,0,0,.9-.8,9.67,9.67,0,0,1,2.3-5.7c1.7-1.8,4.6-2.7,9-2.7a16.71,16.71,0,0,1,5.5.7,10.59,10.59,0,0,1,3.5,1.9,7.19,7.19,0,0,1,1.8,2.6,7,7,0,0,1,.6,2.7v2.5a6.09,6.09,0,0,1-.6,2.8,6.66,6.66,0,0,1-1.3,2.1,9.62,9.62,0,0,1-1.7,1.3c-.5.3-1,.5-1.3.7s-1.3.4-2.7,1-3.1,1-5,1.7-3.9,1.4-5.9,2.1-3.8,1.2-5.4,1.8a14,14,0,0,0-7.3,5.8,17.53,17.53,0,0,0-2.6,9.2v6.2a17.76,17.76,0,0,0,.9,5.2,11,11,0,0,0,3.3,5.2,19,19,0,0,0,6.9,4,35.44,35.44,0,0,0,11.4,1.6A32.86,32.86,0,0,0,199,95.5a21.27,21.27,0,0,0,6.9-4,12.13,12.13,0,0,0,3.3-5.2,17.24,17.24,0,0,0,.9-5.2v-39A14.54,14.54,0,0,0,204.7,30.6Zm-8.1,54.2c-1.7,1.7-4.7,2.6-9.1,2.6s-7.3-.9-8.9-2.5-2.4-4.2-2.4-7.5a7.69,7.69,0,0,1,1-4.2,12.27,12.27,0,0,1,2.2-2.7,19.23,19.23,0,0,1,3.1-1.8c1.3-.5,2.9-1,4.5-1.6,1.3-.4,2.8-.9,4.3-1.5s3-1,4.3-1.5a9.34,9.34,0,0,0,2-1,3.53,3.53,0,0,0,1.3-2h0l.1,16.4C199,80.6,198.2,83.1,196.6,84.8Z"/></svg>